<svg xmlns="http://www.w3.org/2000/svg" xmlns:xlink="http://www.w3.org/1999/xlink" width="447.901" height="437.132" viewBox="0 0 447.901 437.132"><defs><style>.a{fill:url(#a);}.b{fill:#105df3;}.c{fill:url(#b);}.d{fill:#163e8b;}.e{fill:#fff;}</style><linearGradient id="a" y1="0.5" x2="1" y2="0.5" gradientUnits="objectBoundingBox"><stop offset="0" stop-color="#105df3"/><stop offset="1" stop-color="#105df3" stop-opacity="0.059"/></linearGradient><linearGradient id="b" x1="0.5" x2="0.5" y2="1" gradientUnits="objectBoundingBox"><stop offset="0" stop-color="#105df3"/><stop offset="1" stop-color="#105df3" stop-opacity="0"/></linearGradient></defs><g transform="translate(-20.923 -464.466)"><g transform="translate(20.923 690.604)"><circle class="a" cx="93.633" cy="93.633" r="93.633"/><circle class="b" cx="63.113" cy="63.113" r="63.113" transform="translate(30.52 30.52)"/></g><g transform="translate(276.785 536.065)"><circle class="c" cx="93.633" cy="93.633" r="93.633"/><circle class="b" cx="63.113" cy="63.113" r="63.113" transform="translate(30.52 30.52)"/></g><path class="c" d="M160,0A160,160,0,1,1,0,160,160,160,0,0,1,160,0Z" transform="translate(31.693 741.597) rotate(-60)"/><g transform="translate(69.773 523.03)"><path class="b" d="M229.77,583.458l-85.3,57.925a7.674,7.674,0,1,1-8.373-12.862l21.868-14.849a7.777,7.777,0,0,0,1.86-.86l96.6-65.6a7.674,7.674,0,1,0-8.373-12.862l-58.148,39.488q-3.831-.246-7.725-.252A119.513,119.513,0,0,0,121.4,796.015L77.727,825.676A7.672,7.672,0,0,0,86.1,838.535l51.09-34.695c.291.119.58.251.873.368l92.43-62.766a7.673,7.673,0,1,1,8.373,12.859l-81.952,55.649A119.538,119.538,0,0,0,229.77,583.458Z" transform="translate(-1.072 -533.117)"/><path class="d" d="M289.265,577.357,176.522,650.068,141.075,609.7l-75.7,51.529A119.049,119.049,0,0,0,75.438,682.2L137.2,640.16l35.116,40,123.287-79.51A118.619,118.619,0,0,0,289.265,577.357Z" transform="translate(3.408 -460.278)"/><g transform="translate(36.455 39.286)"><path class="e" d="M60.679,710.272a.626.626,0,0,1-.627-.624V592.755a.626.626,0,0,1,1.252,0V709.648A.624.624,0,0,1,60.679,710.272Z" transform="translate(-41.805 -475.242)"/><path class="e" d="M76.522,731.474a.626.626,0,0,1-.627-.625V548.589a.626.626,0,1,1,1.252,0V730.85A.624.624,0,0,1,76.522,731.474Z" transform="translate(-15.72 -547.962)"/><path class="e" d="M92.365,710.065a.625.625,0,0,1-.627-.625V548.589a.626.626,0,1,1,1.252,0V709.44A.624.624,0,0,1,92.365,710.065Z" transform="translate(10.364 -547.962)"/><path class="e" d="M108.208,731.459a.625.625,0,0,1-.627-.624V579.889a.626.626,0,1,1,1.252,0V730.834A.624.624,0,0,1,108.208,731.459Z" transform="translate(36.449 -496.428)"/><path class="e" d="M124.051,687.115a.625.625,0,0,1-.627-.625v-137.9a.626.626,0,1,1,1.252,0v137.9A.624.624,0,0,1,124.051,687.115Z" transform="translate(62.534 -547.962)"/><path class="e" d="M139.894,659.375a.627.627,0,0,1-.627-.627V548.589a.626.626,0,1,1,1.252,0V658.747A.626.626,0,0,1,139.894,659.375Z" transform="translate(88.618 -547.962)"/><path class="e" d="M155.737,620.594a.627.627,0,0,1-.627-.627V548.589a.626.626,0,1,1,1.252,0v71.377A.626.626,0,0,1,155.737,620.594Z" transform="translate(114.703 -547.962)"/><path class="e" d="M346.465,627.6H53.782a.626.626,0,0,1,0-1.252H346.465a.626.626,0,1,1,0,1.252Z" transform="translate(-53.157 -418.909)"/><path class="e" d="M76.522,625.2a.629.629,0,0,1-.627-.627v-5.153a.626.626,0,1,1,1.252,0v5.153A.626.626,0,0,1,76.522,625.2Z" transform="translate(-15.72 -431.341)"/><path class="e" d="M92.31,622.58a.624.624,0,0,1-.625-.627V618.4a.626.626,0,1,1,1.252,0v3.557A.627.627,0,0,1,92.31,622.58Z" transform="translate(10.277 -433.029)"/><path class="e" d="M92.31,632.191a.624.624,0,0,1-.625-.624v-3.554a.626.626,0,1,1,1.252,0v3.554A.626.626,0,0,1,92.31,632.191Z" transform="translate(10.277 -417.197)"/><path class="e" d="M92.31,633.7a.624.624,0,0,1-.625-.625V621.036a.626.626,0,0,1,1.252,0V633.08A.626.626,0,0,1,92.31,633.7Z" transform="translate(10.277 -428.679)"/><path class="e" d="M92.31,645.188a.625.625,0,0,1-.625-.627V630.931a.626.626,0,1,1,1.252,0V644.56A.627.627,0,0,1,92.31,645.188Z" transform="translate(10.277 -412.391)"/><path class="e" d="M92.365,617.416a.625.625,0,0,1-.627-.625v-5.155a.626.626,0,0,1,1.252,0v5.155A.624.624,0,0,1,92.365,617.416Z" transform="translate(10.364 -444.155)"/><path class="e" d="M92.365,620.492a.625.625,0,0,1-.627-.627v-5.147a.626.626,0,0,1,1.252,0v5.147A.625.625,0,0,1,92.365,620.492Z" transform="translate(10.364 -439.081)"/><path class="e" d="M108.208,582.805a.625.625,0,0,1-.627-.625v-5.15a.626.626,0,0,1,1.252,0v5.15A.624.624,0,0,1,108.208,582.805Z" transform="translate(36.449 -501.131)"/><path class="e" d="M124.051,608.16a.625.625,0,0,1-.627-.625v-5.15a.626.626,0,0,1,1.252,0v5.15A.624.624,0,0,1,124.051,608.16Z" transform="translate(62.534 -459.385)"/><path class="e" d="M139.894,608.16a.625.625,0,0,1-.627-.625v-5.15a.626.626,0,0,1,1.252,0v5.15A.624.624,0,0,1,139.894,608.16Z" transform="translate(88.618 -459.385)"/><path class="e" d="M139.894,624.206a.625.625,0,0,1-.627-.625V608.4a.626.626,0,0,1,1.252,0v15.177A.624.624,0,0,1,139.894,624.206Z" transform="translate(88.618 -449.475)"/><path class="e" d="M139.894,597.56a.624.624,0,0,1-.627-.624v-5.153a.626.626,0,1,1,1.252,0v5.153A.624.624,0,0,1,139.894,597.56Z" transform="translate(88.618 -476.846)"/><path class="e" d="M155.737,597.56a.624.624,0,0,1-.627-.624v-5.153a.626.626,0,1,1,1.252,0v5.153A.624.624,0,0,1,155.737,597.56Z" transform="translate(114.703 -476.846)"/><path class="e" d="M155.737,610.641a.627.627,0,0,1-.627-.627v-5.153a.626.626,0,1,1,1.252,0v5.153A.626.626,0,0,1,155.737,610.641Z" transform="translate(114.703 -455.313)"/><path class="e" d="M155.737,649.738a.625.625,0,0,1-.627-.627V628.474a.626.626,0,0,1,1.252,0v20.637A.625.625,0,0,1,155.737,649.738Z" transform="translate(114.703 -416.433)"/><path class="e" d="M155.737,628.652a.627.627,0,0,1-.627-.627v-5.153a.626.626,0,1,1,1.252,0v5.153A.626.626,0,0,1,155.737,628.652Z" transform="translate(114.703 -425.659)"/><path class="e" d="M155.737,615.893a.625.625,0,0,1-.627-.625V595.716a.626.626,0,1,1,1.252,0v19.552A.624.624,0,0,1,155.737,615.893Z" transform="translate(114.703 -470.37)"/><path class="e" d="M155.737,641.636a.625.625,0,0,1-.627-.625V608.492a.626.626,0,0,1,1.252,0v32.519A.624.624,0,0,1,155.737,641.636Z" transform="translate(114.703 -449.332)"/><path class="e" d="M155.737,591.5a.627.627,0,0,1-.627-.627V577.626a.626.626,0,1,1,1.252,0v13.243A.626.626,0,0,1,155.737,591.5Z" transform="translate(114.703 -500.154)"/><path class="e" d="M155.737,598.372a.625.625,0,0,1-.627-.625V584.5a.626.626,0,1,1,1.252,0v13.245A.624.624,0,0,1,155.737,598.372Z" transform="translate(114.703 -488.833)"/><path class="e" d="M139.882,609.587a.627.627,0,0,1-.627-.627V605.5a.626.626,0,0,1,1.252,0v3.462A.626.626,0,0,1,139.882,609.587Z" transform="translate(88.598 -454.26)"/><path class="e" d="M139.882,639.334a.627.627,0,0,1-.627-.627V617.982a.626.626,0,1,1,1.252,0v20.724A.626.626,0,0,1,139.882,639.334Z" transform="translate(88.598 -433.71)"/><path class="e" d="M139.882,619.038a.625.625,0,0,1-.627-.625v-3.461a.626.626,0,1,1,1.252,0v3.461A.624.624,0,0,1,139.882,619.038Z" transform="translate(88.598 -438.699)"/><path class="e" d="M139.882,650.351a.627.627,0,0,1-.627-.627v-21.6a.626.626,0,1,1,1.252,0v21.6A.626.626,0,0,1,139.882,650.351Z" transform="translate(88.598 -417.006)"/><path class="e" d="M139.894,609.87a.625.625,0,0,1-.627-.627v-14.28a.626.626,0,0,1,1.252,0v14.28A.624.624,0,0,1,139.894,609.87Z" transform="translate(88.618 -471.607)"/><path class="e" d="M108.208,572.253a.627.627,0,0,1-.627-.627v-5.147a.626.626,0,1,1,1.252,0v5.147A.626.626,0,0,1,108.208,572.253Z" transform="translate(36.449 -518.509)"/><path class="e" d="M124.051,616.015a.625.625,0,0,1-.627-.625v-5.147a.626.626,0,1,1,1.252,0v5.147A.624.624,0,0,1,124.051,616.015Z" transform="translate(62.534 -446.452)"/><path class="e" d="M124.051,642.679a.624.624,0,0,1-.627-.624V627.709a.626.626,0,0,1,1.252,0v14.346A.624.624,0,0,1,124.051,642.679Z" transform="translate(62.534 -417.692)"/><path class="e" d="M124.051,612.236a.627.627,0,0,1-.627-.627v-5.147a.626.626,0,1,1,1.252,0v5.147A.626.626,0,0,1,124.051,612.236Z" transform="translate(62.534 -452.679)"/><path class="e" d="M124.051,628.115a.627.627,0,0,1-.627-.627V622.34a.626.626,0,1,1,1.252,0v5.147A.626.626,0,0,1,124.051,628.115Z" transform="translate(62.534 -426.535)"/><path class="e" d="M124.051,640.1a.625.625,0,0,1-.627-.627v-5.148a.626.626,0,0,1,1.252,0v5.148A.625.625,0,0,1,124.051,640.1Z" transform="translate(62.534 -406.796)"/><path class="e" d="M124.051,633.254a.625.625,0,0,1-.627-.625V613.585a.626.626,0,1,1,1.252,0v19.044A.624.624,0,0,1,124.051,633.254Z" transform="translate(62.534 -440.95)"/><path class="e" d="M108.208,560.288a.625.625,0,0,1-.627-.625v-5.147a.626.626,0,1,1,1.252,0v5.147A.624.624,0,0,1,108.208,560.288Z" transform="translate(36.449 -538.204)"/><path class="e" d="M108.208,561.258a.627.627,0,0,1-.627-.627V548.589a.626.626,0,1,1,1.252,0v12.042A.626.626,0,0,1,108.208,561.258Z" transform="translate(36.449 -547.962)"/><path class="e" d="M108.208,577.969a.625.625,0,0,1-.627-.627V557.708a.626.626,0,1,1,1.252,0v19.634A.625.625,0,0,1,108.208,577.969Z" transform="translate(36.449 -532.948)"/><path class="e" d="M108.208,586.282a.627.627,0,0,1-.627-.627V569.427a.626.626,0,0,1,1.252,0v16.228A.626.626,0,0,1,108.208,586.282Z" transform="translate(36.449 -513.65)"/><path class="e" d="M76.522,629.086a.626.626,0,0,1-.627-.624v-5.15a.626.626,0,0,1,1.252,0v5.15A.624.624,0,0,1,76.522,629.086Z" transform="translate(-15.72 -424.932)"/><path class="e" d="M76.522,634.457a.627.627,0,0,1-.627-.627v-5.147a.626.626,0,0,1,1.252,0v5.147A.625.625,0,0,1,76.522,634.457Z" transform="translate(-15.72 -416.089)"/><path class="e" d="M76.522,642.481a.627.627,0,0,1-.627-.627v-9.279a.626.626,0,1,1,1.252,0v9.279A.625.625,0,0,1,76.522,642.481Z" transform="translate(-15.72 -409.684)"/><path class="e" d="M60.679,597.737a.626.626,0,0,1-.627-.625v-9.276a.626.626,0,0,1,1.252,0v9.276A.624.624,0,0,1,60.679,597.737Z" transform="translate(-41.805 -483.339)"/><path class="e" d="M60.679,571.013a.626.626,0,0,1-.627-.624v-9.281a.626.626,0,0,1,1.252,0v9.281A.624.624,0,0,1,60.679,571.013Z" transform="translate(-41.805 -527.347)"/><path class="e" d="M60.668,573.64a.625.625,0,0,1-.627-.627v-6.174a.626.626,0,0,1,1.252,0v6.174A.625.625,0,0,1,60.668,573.64Z" transform="translate(-41.823 -517.911)"/><path class="e" d="M60.679,588.98a.626.626,0,0,1-.627-.625v-17.93a.626.626,0,1,1,1.252,0v17.93A.624.624,0,0,1,60.679,588.98Z" transform="translate(-41.805 -512.009)"/><path class="e" d="M60.679,597.771a.626.626,0,0,1-.627-.625V579.222a.626.626,0,1,1,1.252,0v17.924A.624.624,0,0,1,60.679,597.771Z" transform="translate(-41.805 -497.527)"/><path class="e" d="M60.679,575.162a.627.627,0,0,1-.627-.627V548.589a.626.626,0,1,1,1.252,0v25.946A.625.625,0,0,1,60.679,575.162Z" transform="translate(-41.805 -547.962)"/></g><circle class="b" cx="17.396" cy="17.396" r="17.396" transform="translate(350.528 239.811)"/><circle class="b" cx="11.148" cy="11.148" r="11.148" transform="translate(14.179 16.643)"/><path class="b" d="M22.553,0A22.553,22.553,0,1,1,0,22.553,22.553,22.553,0,0,1,22.553,0Z" transform="translate(125.696 288.026)"/><g transform="translate(0 51.008)"><path class="e" d="M50.9,750.423a11.5,11.5,0,0,1-6.484-21.013l139.452-97.2,35.446,40.372L395.342,559.2a11.5,11.5,0,0,1,12.467,19.335L215.111,702.67l-35.118-40L57.36,748.43A11.448,11.448,0,0,1,50.9,750.423Z" transform="translate(-39.382 -544.202)"/><path class="e" d="M235.842,588.454a11.855,11.855,0,0,1-1.776-.135L149.8,575.259a11.5,11.5,0,1,1,3.52-22.736l84.268,13.06a11.5,11.5,0,0,1-1.744,22.871Z" transform="translate(126.366 -552.391)"/></g></g></g></svg>