<svg xmlns="http://www.w3.org/2000/svg" width="197.865" height="49.403" viewBox="0 0 197.865 49.403">
  <g id="Group_29082" data-name="Group 29082" transform="translate(-861 -44.543)">
    <g id="Group_29015" data-name="Group 29015" transform="translate(861 44.543)">
      <g id="Group_28877" data-name="Group 28877" transform="translate(0 2.344)">
        <path id="Path_59382" data-name="Path 59382" d="M0,6.933c7.3-.043,14.562-.09,21.854-.133.043,7.288.09,14.559.133,21.858-7.274.043-14.544.09-21.854.133Q.068,17.88,0,6.933Z" transform="translate(0 -6.695)" fill="#00bf91"/>
        <path id="Path_59383" data-name="Path 59383" d="M.43,75.523c7.292-.043,14.551-.09,21.84-.133a1.808,1.808,0,0,1,.04.252c.018,3.763.144,7.533.025,11.292A10.36,10.36,0,0,1,16.1,96.351a9.628,9.628,0,0,1-4.2.987c-3.709.05-7.418.054-11.127.079-.058,0-.112-.007-.205-.014C.52,90.118.473,82.84.43,75.523Z" transform="translate(-0.275 -50.587)" fill="#f6bc45"/>
        <path id="Path_59384" data-name="Path 59384" d="M67.933,28.457c-.043-7.3-.09-14.559-.133-21.879.162,0,.31,0,.457,0q5.288-.032,10.58-.065A10.881,10.881,0,0,1,89.65,15.656a10.122,10.122,0,0,1,.119,1.516q.049,5.4.072,10.788c0,.112-.007.223-.014.364C82.531,28.367,75.25,28.411,67.933,28.457Z" transform="translate(-43.386 -6.51)" fill="#055df3"/>
        <path id="Path_59385" data-name="Path 59385" d="M99.546,74.938c.043,7.31.09,14.577.133,21.894-.173,0-.324,0-.475,0l-5.164.032a10.668,10.668,0,0,1-10.85-8.8A10.761,10.761,0,0,1,93.363,74.978c1.959-.068,3.921-.043,5.88-.058C99.333,74.92,99.416,74.931,99.546,74.938Z" transform="translate(-53.094 -50.286)" fill="#eb3d66"/>
      </g>
      <g id="Group_29015-2" data-name="Group 29015" transform="translate(62.871)">
        <g id="Group_29015-3" data-name="Group 29015">
          <path id="Path_59452" data-name="Path 59452" d="M34.161,50.684A14.663,14.663,0,0,0,9.68,40.274v-.58A3.254,3.254,0,0,0,6.426,36.44H0V72.473H9.683V49.631a8.189,8.189,0,0,1,14.809,4.825V72.473h9.68V50.684Z" transform="translate(0 -23.396)" fill="#fff"/>
          <path id="Path_59453" data-name="Path 59453" d="M356.489,36.44H350.06V72.473h9.683V39.694A3.254,3.254,0,0,0,356.489,36.44Z" transform="translate(-224.749 -23.396)" fill="#fff"/>
          <path id="Path_59454" data-name="Path 59454" d="M132.573,36.59a18.153,18.153,0,1,0,18.153,18.153A18.151,18.151,0,0,0,132.573,36.59Zm0,26.533a8.38,8.38,0,1,1,8.38-8.38A8.38,8.38,0,0,1,132.573,63.123Z" transform="translate(-73.461 -23.492)" fill="#fff"/>
          <path id="Path_59455" data-name="Path 59455" d="M268.68,31.128a17.986,17.986,0,0,0-26.3-15.955V3.314A3.254,3.254,0,0,0,239.126.06H232.7V49.116h18.153v0A17.987,17.987,0,0,0,268.68,31.128Zm-17.992,8.3H242.38v-8.3h0a8.3,8.3,0,1,1,8.3,8.3Z" transform="translate(-149.4 -0.039)" fill="#fff"/>
          <path id="Path_59457" data-name="Path 59457" d="M356.489,0H350.06V9.9h9.683V3.254A3.254,3.254,0,0,0,356.489,0Z" transform="translate(-224.749)" fill="#fff"/>
        </g>
      </g>
    </g>
  </g>
</svg>
