<svg xmlns="http://www.w3.org/2000/svg" xmlns:xlink="http://www.w3.org/1999/xlink" width="268.358" height="268.476" viewBox="0 0 268.358 268.476"><defs><style>.a,.b{opacity:0.995;}.a{fill:url(#a);}.b{fill:#f7ac2f;}.c{fill:none;stroke:#fff;stroke-width:4px;}</style><linearGradient id="a" x1="0.5" x2="0.5" y2="1" gradientUnits="objectBoundingBox"><stop offset="0" stop-color="#f7ac2f"/><stop offset="1" stop-color="#f7ac2e" stop-opacity="0"/></linearGradient></defs><g transform="translate(-295.149 -2820.789)"><ellipse class="a" cx="98.328" cy="98.167" rx="98.328" ry="98.167" transform="translate(295.149 2991.098) rotate(-60)"/><ellipse class="b" cx="75.328" cy="75.167" rx="75.328" ry="75.167" transform="translate(354 2879.86)"/><path class="c" d="M-51.755-51.516c0-10.812,1.59-20.034,5.565-26.235,3.18-5.088,8.109-8.427,15.582-8.427,7.632,0,12.243,3.339,15.423,8.427,4.134,6.2,5.724,15.423,5.724,26.235s-1.59,20.034-5.724,26.235c-3.18,5.088-7.791,8.427-15.423,8.427-7.473,0-12.4-3.339-15.582-8.427C-50.165-31.482-51.755-40.7-51.755-51.516Zm-21.942,0c0,13.2,2.067,26.076,9.063,36.729C-57.8-4.611-46.667,2.544-30.607,2.544S-3.418-4.611,3.259-14.787c7-10.653,9.222-23.532,9.222-36.729S10.256-77.592,3.259-88.245c-6.678-10.176-17.808-17.331-33.867-17.331S-57.8-98.421-64.633-88.245C-71.63-77.592-73.7-64.713-73.7-51.516ZM68.768,0V-103.191H49.847c-2.067,10.812-12.561,19.239-27.666,19.4v14.787h24.8V0Z" transform="translate(474.5 3007.5)"/></g></svg>