<svg xmlns="http://www.w3.org/2000/svg" xmlns:xlink="http://www.w3.org/1999/xlink" width="277.96" height="268.476" viewBox="0 0 277.96 268.476"><defs><style>.a{opacity:0.995;fill:url(#a);}.b{fill:#eb3d66;}.c{fill:none;stroke:#fff;stroke-width:4px;}</style><linearGradient id="a" x1="0.5" x2="0.5" y2="1" gradientUnits="objectBoundingBox"><stop offset="0" stop-color="#eb3d66"/><stop offset="1" stop-color="#eb3d66" stop-opacity="0"/></linearGradient></defs><g transform="translate(-843.149 -2820.789)"><ellipse class="a" cx="98.328" cy="98.167" rx="98.328" ry="98.167" transform="translate(843.149 2991.098) rotate(-60)"/><ellipse class="b" cx="75.328" cy="75.167" rx="75.328" ry="75.167" transform="translate(901.456 2880.393)"/><path class="c" d="M-64.077-51.516c0-10.812,1.59-20.034,5.565-26.235,3.18-5.088,8.109-8.427,15.582-8.427,7.632,0,12.243,3.339,15.423,8.427,4.134,6.2,5.724,15.423,5.724,26.235s-1.59,20.034-5.724,26.235c-3.18,5.088-7.791,8.427-15.423,8.427-7.473,0-12.4-3.339-15.582-8.427C-62.487-31.482-64.077-40.7-64.077-51.516Zm-21.942,0c0,13.2,2.067,26.076,9.063,36.729C-70.119-4.611-58.989,2.544-42.93,2.544S-15.741-4.611-9.063-14.787C-2.067-25.44.159-38.319.159-51.516S-2.067-77.592-9.063-88.245c-6.678-10.176-17.808-17.331-33.867-17.331s-27.189,7.155-34.026,17.331C-83.952-77.592-86.019-64.713-86.019-51.516ZM33.708-63.282a22.609,22.609,0,0,1-.795-5.724c0-9.7,5.406-17.172,16.377-17.172,10.335,0,15.582,6.678,15.582,14.151,0,7.155-3.5,12.561-12.243,17.808L35.616-44.043C17.172-32.913,11.448-18.126,11.289,0h76.32V-18.921H38.16c1.59-3.975,4.929-6.837,8.9-9.381L66.939-40.386c12.72-7.791,20.034-18.6,20.034-31.959,0-17.967-14.151-33.231-37.206-33.231-24.009,0-37.683,16.377-37.683,34.5a38.949,38.949,0,0,0,.8,7.155Z" transform="translate(1031.5 3007.5)"/></g></svg>