<svg xmlns="http://www.w3.org/2000/svg" xmlns:xlink="http://www.w3.org/1999/xlink" width="280.611" height="268.476" viewBox="0 0 280.611 268.476"><defs><style>.a{opacity:0.995;fill:url(#a);}.b{fill:#013fa8;opacity:0.998;}.c{fill:none;stroke:#fff;stroke-width:4px;}</style><linearGradient id="a" x1="0.5" x2="0.5" y2="1" gradientUnits="objectBoundingBox"><stop offset="0" stop-color="#073fa8"/><stop offset="1" stop-color="#073fa8" stop-opacity="0"/></linearGradient></defs><g transform="translate(-1353.149 -2820.789)"><ellipse class="a" cx="98.328" cy="98.167" rx="98.328" ry="98.167" transform="translate(1353.149 2991.098) rotate(-60)"/><ellipse class="b" cx="75.328" cy="75.167" rx="75.328" ry="75.167" transform="translate(1412 2879.925)"/><path class="c" d="M28.461-51.516c0-10.812,1.59-20.034,5.565-26.235,3.18-5.088,8.109-8.427,15.582-8.427,7.632,0,12.243,3.339,15.423,8.427,4.134,6.2,5.724,15.423,5.724,26.235s-1.59,20.034-5.724,26.235c-3.18,5.088-7.791,8.427-15.423,8.427-7.473,0-12.4-3.339-15.582-8.427C30.051-31.482,28.461-40.7,28.461-51.516Zm-21.942,0c0,13.2,2.067,26.076,9.063,36.729C22.419-4.611,33.549,2.544,49.608,2.544S76.8-4.611,83.475-14.787c7-10.653,9.222-23.532,9.222-36.729s-2.226-26.076-9.222-36.729C76.8-98.421,65.667-105.576,49.608-105.576S22.419-98.421,15.582-88.245C8.586-77.592,6.519-64.713,6.519-51.516Zm126.405,5.724a25.648,25.648,0,0,1,9.381-1.59c9.858,0,16.854,5.565,16.854,15.264,0,8.586-6.519,15.582-17.49,15.582-10.812,0-18.285-7.632-18.762-18.126L101.76-30.528c1.272,17.331,15.9,32.913,39.909,32.913,24.963,0,39.591-16.377,39.591-34.185,0-18.921-14.31-30.846-29.892-31.482l26.712-22.26v-17.649H105.1V-84.27h45.156l-27.03,23.214Z" transform="translate(1450.5 3007.5)"/></g></svg>