<svg xmlns="http://www.w3.org/2000/svg" xmlns:xlink="http://www.w3.org/1999/xlink" width="345.5" height="479.115" viewBox="0 0 345.5 479.115"><defs><style>.a{fill:#32ab7b;}.b{fill:url(#a);}.c{fill:#2d996f;}.d{fill:#fff;}</style><linearGradient id="a" y1="0.5" x2="1" y2="0.5" gradientUnits="objectBoundingBox"><stop offset="0" stop-color="#32ab7b"/><stop offset="1" stop-color="#32ab7b" stop-opacity="0"/></linearGradient></defs><g transform="translate(114.218 173.696)"><path class="a" d="M24.859-138.221v57.748A6.262,6.262,0,0,1,18.6-74.209a6.258,6.258,0,0,1-6.263-6.263v-63.843a77.9,77.9,0,0,0-27.753-5.161A78.256,78.256,0,0,0-93.675-71.221,78.257,78.257,0,0,0-15.42,7.033,78.257,78.257,0,0,0,62.834-71.221,78.131,78.131,0,0,0,24.859-138.221Z" transform="translate(108.125 127.477)"/><path class="b" d="M75.546-153.143V-29.786a6.262,6.262,0,0,1-6.263,6.263,6.258,6.258,0,0,1-6.263-6.263V-154.9a5.858,5.858,0,0,1,.276-1.372,139.123,139.123,0,0,0-28.029-2.837A138.569,138.569,0,0,0-103.3-20.535,137.883,137.883,0,0,0-78.546,58.484V-1.864a6.262,6.262,0,0,1,6.263-6.263,6.262,6.262,0,0,1,6.263,6.263V73.992A138.158,138.158,0,0,0,35.266,118.036,138.574,138.574,0,0,0,173.843-20.535,138.62,138.62,0,0,0,75.546-153.143Z" transform="translate(57.439 76.791)"/><path class="b" d="M-26.012-134.783A82.645,82.645,0,0,0-97.352-93.82v83.585a82.645,82.645,0,0,0,71.34,40.962A82.754,82.754,0,0,0,56.739-52.025,82.759,82.759,0,0,0-26.012-134.783Z" transform="translate(88.772 204.812)"/><path class="b" d="M-31.172-150.551a83.043,83.043,0,0,0-83.046,83.04A83.044,83.044,0,0,0-31.172,15.535a83.413,83.413,0,0,0,10.065-.67V-46.892a6.262,6.262,0,0,1,6.263-6.263A6.262,6.262,0,0,1-8.58-46.892V12.34A83.01,83.01,0,0,0,51.868-67.511,83.041,83.041,0,0,0-31.172-150.551Z" transform="translate(0 121.819)"/><path class="a" d="M-68.487-28.734A6.258,6.258,0,0,1-74.75-35V-160.109a6.262,6.262,0,0,1,6.263-6.263,6.266,6.266,0,0,1,6.263,6.263V-35A6.262,6.262,0,0,1-68.487-28.734Z" transform="translate(207.735 38.548)"/><path class="a" d="M-95.089,18.456a6.262,6.262,0,0,1-6.263-6.263v-125.1a6.262,6.262,0,0,1,6.263-6.263,6.262,6.262,0,0,1,6.263,6.263v125.1A6.262,6.262,0,0,1-95.089,18.456Z" transform="translate(67.719 286.963)"/><path class="a" d="M-97.833-30.783a6.266,6.266,0,0,1-6.263-6.263V-162.157a6.262,6.262,0,0,1,6.263-6.263,6.262,6.262,0,0,1,6.263,6.263V-37.046A6.266,6.266,0,0,1-97.833-30.783Z" transform="translate(53.276 27.768)"/><path class="a" d="M-68.487,10.247A6.262,6.262,0,0,1-74.75,3.983V-121.128a6.258,6.258,0,0,1,6.263-6.263,6.262,6.262,0,0,1,6.263,6.263V3.983A6.266,6.266,0,0,1-68.487,10.247Z" transform="translate(207.735 243.719)"/><circle class="b" cx="86.96" cy="86.96" r="86.96" transform="translate(-28.411 -173.696)"/><circle class="a" cx="67.13" cy="67.13" r="67.13" transform="translate(-8.581 -153.866)"/><circle class="a" cx="55.338" cy="55.338" r="55.338" transform="translate(7.419 97.447)"/><circle class="a" cx="14.605" cy="14.605" r="14.605" transform="translate(166.462 -111.528)"/><circle class="a" cx="14.605" cy="14.605" r="14.605" transform="translate(-90.099 163.78)"/><path class="c" d="M-82.331-128.989c-.395,3.345-.745,6.746-1.015,10.247.1.044.188.094.288.132-.1-.013-.194-.038-.294-.056-.47,6.163-.8,12.483-.8,19.135,0,24.183,6.439,49.33,13.4,69.467l18.251,49.23L-79.694-17.758C-87.01-6.684-92.835,5.467-92.835,16.215v8.362A107.137,107.137,0,0,0-75.028,40.385a65.785,65.785,0,0,1,31.5-13.535C-15.276,30.727.69,52.1,4.723,58.211c.351-.063.708-.1,1.059-.163V16.215C5.782,1.283-5.4-16.38-16.3-30.065-9.338-50.2-2.9-75.349-2.9-99.532a240.436,240.436,0,0,0-6.069-54.3c-1.541-.069-3.05-.232-4.61-.232A106.493,106.493,0,0,0-82.331-128.989Z" transform="translate(112.547 103.345)"/><path class="d" d="M-17.3,32.737C-10.338,12.6-3.9-12.547-3.9-36.73c0-84.042-40.624-129.263-40.624-129.263s-20.243,22.774-32.137,65.74c37.994-8.562,62.966,7.234,62.966,7.234s-37.355-8.794-65.64,3.125a237.628,237.628,0,0,0-5.011,33.954c.1.044.188.094.288.132-.1-.013-.194-.038-.294-.056-.47,6.163-.8,12.483-.8,19.135,0,24.183,6.432,49.33,13.391,69.467l18.251,49.23L-80.694,45.045C-88.01,56.119-93.835,68.27-93.835,79.024v43.662s16.291-28.5,49.311-33.033c33.014,4.535,49.305,33.033,49.305,33.033V79.024C4.782,64.086-6.4,46.423-17.3,32.737Z" transform="translate(107.283 40.542)"/><path class="a" d="M-91.078,12.068A6.262,6.262,0,0,1-97.341,5.8V-119.3a6.262,6.262,0,0,1,6.263-6.263,6.262,6.262,0,0,1,6.263,6.263V5.8A6.262,6.262,0,0,1-91.078,12.068Z" transform="translate(88.83 220.34)"/></g></svg>